<?xml version="1.0" encoding="utf-8"?>
<!-- Generator: Adobe Illustrator 26.3.1, SVG Export Plug-In . SVG Version: 6.00 Build 0)  -->
<svg version="1.1" xmlns="http://www.w3.org/2000/svg" xmlns:xlink="http://www.w3.org/1999/xlink" x="0px" y="0px"
	 viewBox="0 0 288 288" style="enable-background:new 0 0 288 288;" xml:space="preserve">
<style type="text/css">
	.st0{display:none;}
	.st1{display:inline;}
</style>
<g id="Layer_1" class="st0">
	<g class="st1">
		<g>
			<path d="M10.08,275.83c-1.71,0.07-3.21,1.19-3.79,2.79c-0.17,0.47,0.34,0.87,0.77,0.77c0.2-0.05-0.05-0.01,0.06-0.02
				c0.05,0,0.11,0,0.16,0c-0.09,0,0.02,0,0.06,0.01c0.05,0.01,0.11,0.03,0.16,0.05c-0.08-0.03,0.04,0.02,0.06,0.03
				c0.05,0.03,0.1,0.05,0.14,0.08c0.06,0.04,0.09,0.07,0.18,0.16c0.09,0.1,0.16,0.22,0.21,0.38c0.01,0.03,0.03,0.14,0.02,0.06
				c0.01,0.05,0.01,0.11,0,0.16c0,0.1,0.03-0.11-0.01,0.06c-0.01,0.05-0.03,0.09-0.04,0.14c-0.03,0.08,0.07-0.1-0.02,0.03
				c-0.02,0.03-0.04,0.07-0.06,0.1c0.06-0.09-0.01,0.01-0.03,0.03c-0.03,0.03-0.07,0.07-0.1,0.1c-0.12,0.12,0.05-0.03-0.03,0.03
				c-0.04,0.03-0.08,0.05-0.12,0.08c-0.04,0.02-0.09,0.05-0.13,0.07c-0.09,0.04,0.12-0.03-0.04,0.01c-0.05,0.01-0.09,0.03-0.14,0.04
				c-0.02,0.01-0.16,0.03-0.03,0.01c-0.1,0.01-0.19,0.01-0.29,0c0.06,0,0.05,0.01,0,0c-0.05-0.01-0.09-0.03-0.14-0.04
				c-0.06-0.02,0.06,0.04-0.04-0.01c-0.05-0.03-0.1-0.06-0.15-0.09c-0.28-0.19-0.69-0.05-0.86,0.22c-0.18,0.31-0.06,0.66,0.22,0.86
				c1.11,0.76,2.79,0.1,3.18-1.16c0.47-1.49-1.1-2.93-2.55-2.59c0.26,0.26,0.51,0.51,0.77,0.77c0.17-0.48,0.56-0.99,0.98-1.3
				c0.5-0.36,1.04-0.56,1.6-0.58c0.34-0.01,0.62-0.28,0.62-0.62C10.71,276.12,10.42,275.81,10.08,275.83L10.08,275.83z"/>
		</g>
	</g>
	<g class="st1">
		<g>
			<path d="M12.02,280.89c0.01-0.28,0.01-0.56,0.04-0.84c0.01-0.06,0.01-0.13,0.02-0.19c-0.01,0.09,0.01-0.06,0.02-0.09
				c0.03-0.14,0.06-0.27,0.1-0.4c0.01-0.03,0.02-0.06,0.03-0.09c0,0,0.04-0.1,0.02-0.04c-0.01,0.03,0.04-0.08,0.05-0.1
				c0.03-0.05,0.05-0.09,0.08-0.14c0.02-0.03,0.12-0.15,0.04-0.07c0.08-0.09,0.16-0.16,0.24-0.25c0.05-0.05-0.01,0.01-0.02,0.02
				c0.02-0.02,0.04-0.03,0.06-0.05c0.05-0.03,0.1-0.06,0.16-0.09c0.1-0.06-0.07,0.02,0.04-0.02c0.05-0.02,0.1-0.03,0.15-0.04
				c0.11-0.03-0.08,0,0.04-0.01c0.03,0,0.05,0,0.08,0c0.02,0,0.13,0,0.05,0c-0.08,0,0.02,0,0.04,0.01c0.02,0.01,0.05,0.01,0.07,0.02
				c0.06,0.02,0.13,0.06,0.03,0.01c0.04,0.02,0.09,0.04,0.13,0.07c0.02,0.01,0.04,0.03,0.06,0.04c0.07,0.04-0.07-0.07-0.01-0.01
				c0.08,0.07,0.14,0.14,0.21,0.21c0.05,0.05-0.01-0.02-0.02-0.03c0.01,0.02,0.03,0.04,0.04,0.06c0.03,0.05,0.06,0.1,0.09,0.15
				c0.01,0.02,0.09,0.18,0.06,0.11c-0.03-0.06,0.02,0.07,0.03,0.09c0.02,0.05,0.03,0.1,0.04,0.15c0.01,0.02,0.03,0.17,0.02,0.09
				c0.09,0.65-0.09,1.19-0.27,1.84c-0.09,0.31,0.11,0.69,0.44,0.77c0.33,0.08,0.67-0.1,0.77-0.44c0.19-0.69,0.39-1.42,0.32-2.14
				c-0.07-0.64-0.31-1.27-0.8-1.72c-0.5-0.46-1.2-0.67-1.86-0.47c-0.6,0.19-1.12,0.65-1.41,1.21c-0.38,0.73-0.42,1.56-0.43,2.37
				c-0.01,0.33,0.29,0.64,0.62,0.62C11.74,281.5,12.01,281.24,12.02,280.89L12.02,280.89z"/>
		</g>
	</g>
	<g class="st1">
		<g>
			<path d="M10.88,281.19c1.04,0.21,2.17,0,3.03-0.66c0.14-0.1,0.24-0.2,0.29-0.37c0.04-0.15,0.02-0.35-0.06-0.48
				c-0.16-0.26-0.58-0.44-0.86-0.22c-0.18,0.13-0.36,0.25-0.56,0.35c-0.02,0.01-0.05,0.02-0.08,0.03c0.09-0.04,0.1-0.04,0.03-0.01
				c-0.04,0.01-0.08,0.03-0.12,0.04c-0.1,0.04-0.21,0.07-0.32,0.09c-0.05,0.01-0.11,0.02-0.16,0.03c-0.05,0.01-0.23,0.01-0.04,0.01
				c-0.1,0-0.19,0.02-0.29,0.02c-0.11,0-0.22,0-0.33-0.01c-0.03,0-0.06,0-0.08-0.01c-0.07-0.01-0.05-0.01,0.04,0.01
				c-0.01-0.01-0.14-0.03-0.16-0.03c-0.32-0.06-0.69,0.09-0.77,0.44C10.37,280.73,10.53,281.13,10.88,281.19L10.88,281.19z"/>
		</g>
	</g>
	<g class="st1">
		<g>
			<path d="M16.26,280.89c0.07,0.02,0.14,0.03,0.21,0.05c0.49,0.11,1.04-0.44,0.71-0.92c-0.03-0.05-0.06-0.09-0.09-0.14
				c0.04,0.08,0.01,0.03,0-0.03c-0.01-0.08,0.03,0.1,0.01-0.01c-0.02-0.1-0.03,0.06,0.01-0.04c0.01-0.01,0.05-0.15,0.02-0.08
				c-0.03,0.07,0.04-0.07,0.04-0.07c0.01-0.01,0.09-0.13,0.05-0.08c-0.04,0.06,0.05-0.06,0.06-0.07c0.04-0.04,0.08-0.08,0.13-0.12
				c-0.07,0.05,0,0,0.04-0.02c0.04-0.02,0.08-0.05,0.13-0.07c-0.11,0.05,0.04-0.02,0.06-0.02c0.13-0.04,0.19-0.05,0.32,0
				c0.09,0.04,0.24,0.17,0.29,0.24c0.03,0.04,0.05,0.08,0.08,0.13c0.02,0.03,0.06,0.12,0.03,0.04c0.04,0.1,0.07,0.21,0.1,0.32
				c0.01,0.04,0.02,0.14,0.01,0.05c0.01,0.06,0.01,0.13,0.01,0.19c0,0.04,0,0.08,0,0.13c0,0-0.02,0.2,0,0.09
				c-0.04,0.26-0.09,0.39-0.18,0.56c0.38,0.16,0.76,0.32,1.14,0.48c0.15-0.47,0.34-0.93,0.57-1.37c0.13-0.24,0.26-0.47,0.41-0.69
				c0.01-0.02,0.11-0.16,0.11-0.16c0-0.01-0.06,0.01-0.07,0.01c-0.02,0-0.03-0.01-0.05-0.01c0.06,0.02,0.08,0.02,0.04,0.01
				c-0.01,0,0.04,0.03,0.04,0.05c-0.01-0.01,0.11,0.19,0.09,0.15c0.02,0.05,0.04,0.11,0.05,0.17c0.02,0.11,0-0.08,0.01,0.04
				c0.01,0.12,0.01,0.23,0.01,0.35c0,0.51,0.02,1.05,0.33,1.48c0.2,0.27,0.54,0.41,0.86,0.22c0.27-0.16,0.43-0.58,0.22-0.86
				c-0.16-0.21-0.16-0.34-0.16-0.61c-0.01-0.31,0.01-0.62-0.05-0.93c-0.13-0.61-0.6-1.23-1.25-1.3c-0.78-0.09-1.21,0.62-1.54,1.21
				c-0.34,0.6-0.62,1.24-0.83,1.9c-0.22,0.68,0.8,1.1,1.14,0.48c0.67-1.21,0.38-3.19-1.14-3.6c-1.36-0.36-3.04,1.29-2.12,2.6
				c0.24-0.31,0.47-0.61,0.71-0.92c-0.07-0.02-0.14-0.03-0.21-0.05c-0.33-0.07-0.68,0.1-0.77,0.44
				C15.74,280.43,15.93,280.82,16.26,280.89L16.26,280.89z"/>
		</g>
	</g>
	<g class="st1">
		<g>
			<path d="M30.09,278.23c-0.2,1.27-0.39,2.54-0.59,3.8c-0.05,0.32,0.08,0.69,0.44,0.77c0.3,0.07,0.72-0.09,0.77-0.44
				c0.2-1.27,0.39-2.54,0.59-3.8c0.05-0.32-0.08-0.69-0.44-0.77C30.56,277.73,30.14,277.89,30.09,278.23L30.09,278.23z"/>
		</g>
	</g>
	<g class="st1">
		<g>
			<path d="M30.68,279.66c0-0.01,0.08-0.08,0.08-0.08c0,0.03-0.13,0.08-0.02,0.02c0.01-0.01,0.08-0.04,0.08-0.04
				c-0.01,0.03-0.14,0.05-0.03,0.02c0.03-0.01,0.06-0.01,0.09-0.02c0.12-0.03-0.14,0-0.02,0c0.05,0,0.14,0.02,0.19,0
				c-0.04,0.01-0.14-0.03-0.04,0c0.03,0.01,0.06,0.02,0.09,0.02c0.12,0.04,0.02,0.04-0.01-0.01c0.01,0.02,0.07,0.03,0.08,0.04
				c0.02,0.01,0.06,0.05,0.08,0.05c-0.04,0-0.11-0.1-0.03-0.02c0.01,0.01,0.05,0.06,0.06,0.07c-0.05-0.01-0.07-0.11-0.01-0.01
				c0.01,0.02,0.07,0.12,0.02,0.03c-0.05-0.09,0,0.01,0.01,0.04c0.04,0.11,0.01-0.07,0-0.02c0,0.01,0.01,0.1,0,0.11
				c0.01-0.09,0.02-0.11,0.01-0.06c0,0.02-0.01,0.04-0.02,0.06c-0.01,0.03-0.07,0.11-0.01,0.05c0.06-0.07-0.01,0.02-0.03,0.04
				c-0.01,0.01-0.09,0.11-0.03,0.04c0.06-0.07-0.02,0.02-0.04,0.04c-0.02,0.02-0.03,0.03-0.05,0.05c-0.03,0.03-0.02,0.02,0.04-0.03
				c-0.02,0.03-0.15,0.11-0.19,0.11c0.08-0.03,0.09-0.04,0.05-0.02c-0.02,0.01-0.04,0.01-0.06,0.02c-0.1,0.04,0.04-0.01,0.04,0
				c0,0.01-0.13,0-0.13,0c0,0.01,0.15,0.03-0.01-0.01c-0.06,0.41-0.11,0.82-0.17,1.23c0.03,0,0.06,0.01,0.1,0.01
				c-0.09-0.01-0.09-0.01-0.02,0c0.05,0.01,0.11,0.02,0.16,0.04c0.05,0.01,0.11,0.03,0.16,0.05c0.03,0.01,0.22,0.1,0.08,0.03
				c0.1,0.05,0.2,0.1,0.3,0.16c0.04,0.03,0.08,0.05,0.12,0.08c0.06,0.04,0.05,0.04-0.01-0.01c0.03,0.02,0.05,0.04,0.07,0.06
				c0.09,0.07,0.17,0.15,0.24,0.24c0.02,0.02,0.15,0.19,0.06,0.06c0.03,0.04,0.06,0.08,0.08,0.12c0.06,0.09,0.11,0.19,0.17,0.29
				c0.03,0.06,0.03,0.06,0-0.02c0.01,0.03,0.02,0.06,0.03,0.09c0.02,0.06,0.04,0.12,0.06,0.18c0.09,0.32,0.45,0.54,0.77,0.44
				c0.32-0.1,0.53-0.43,0.44-0.77c-0.35-1.28-1.5-2.18-2.8-2.29c-0.31-0.03-0.58,0.26-0.61,0.54c-0.04,0.3,0.14,0.61,0.45,0.69
				c1.24,0.32,2.42-1.05,1.85-2.21c-0.45-0.93-1.89-1.14-2.58-0.37c-0.22,0.24-0.26,0.65,0,0.88
				C30.04,279.88,30.45,279.92,30.68,279.66L30.68,279.66z"/>
		</g>
	</g>
	<g class="st1">
		<g>
			<path d="M34.89,278.54c0.07,0.28,0.13,0.56,0.18,0.85c0,0,0.03,0.2,0.02,0.1c0.01,0.07,0.02,0.13,0.02,0.2
				c0.02,0.14,0.03,0.29,0.04,0.43c0.02,0.28,0.02,0.55,0.01,0.83c-0.01,0.13-0.01,0.27-0.02,0.4c-0.01,0.07-0.01,0.13-0.02,0.2
				c0,0.02-0.03,0.26-0.02,0.16c-0.05,0.32,0.08,0.69,0.44,0.77c0.29,0.07,0.72-0.09,0.77-0.44c0.18-1.28,0.13-2.57-0.2-3.83
				c-0.08-0.32-0.45-0.54-0.77-0.44C35,277.87,34.8,278.2,34.89,278.54L34.89,278.54z"/>
		</g>
	</g>
	<g class="st1">
		<g>
			<path d="M35.77,279.64c0.1-0.06,0.19-0.12,0.3-0.18c0.05-0.03,0.1-0.05,0.16-0.08c0.13-0.06-0.06,0.01,0.07-0.03
				c0.11-0.04,0.22-0.08,0.33-0.1c0.06-0.01,0.11-0.02,0.17-0.03c-0.13,0.03,0.04,0,0.06,0c0.06,0,0.11,0,0.17,0
				c0.03,0,0.19,0.03,0.05,0c0.05,0.01,0.11,0.02,0.16,0.04c0.02,0.01,0.17,0.07,0.05,0.01c0.05,0.02,0.1,0.05,0.15,0.08
				c0.15,0.08-0.07-0.08,0.01,0c0.01,0.01,0.07,0.08,0.08,0.08c-0.04,0-0.08-0.12-0.01-0.01c0.01,0.02,0.04,0.09,0.05,0.1
				c-0.04-0.02-0.05-0.14-0.01-0.01c0.01,0.04,0.02,0.07,0.03,0.11c0,0.01,0.01,0.02,0.01,0.04c0.01,0.07,0.01,0.05-0.01-0.05
				c-0.02,0.05,0,0.17,0,0.23c0,0.12,0.04-0.14,0-0.02c-0.01,0.03-0.02,0.07-0.03,0.11c0,0.01-0.04,0.1-0.03,0.1
				c-0.01-0.01,0.07-0.15,0-0.02c-0.01,0.03-0.08,0.1-0.01,0.02c0.08-0.08-0.01,0.01-0.03,0.03c-0.08,0.1,0.07-0.03,0.03-0.01
				c-0.02,0.01-0.13,0.07-0.03,0.02c0.11-0.04-0.02,0-0.04,0c-0.05,0.01-0.02,0.01,0.08-0.01c-0.02,0-0.05,0-0.07,0
				c-0.61,0-0.86,0.86-0.32,1.16c0.02,0.01,0.04,0.02,0.05,0.03c0.03,0.02,0.02,0.01-0.01-0.01c-0.04-0.03-0.04-0.03,0,0
				c0.01,0.01,0.02,0.02,0.03,0.03c0.08,0.07-0.05-0.11-0.01-0.01c0.01,0.01,0.03,0.06,0.04,0.07c-0.05-0.02-0.04-0.13-0.01-0.01
				c0.01,0.02,0.03,0.14,0.01,0.03c-0.02-0.1,0,0.01,0,0.03c0,0.03-0.01,0.07,0,0.1c0,0.07,0.03-0.14,0-0.03
				c-0.01,0.03-0.01,0.07-0.02,0.1c-0.01,0.03-0.02,0.07-0.03,0.1c-0.04,0.12,0.05-0.07,0.01-0.01c-0.02,0.03-0.08,0.19-0.12,0.2
				c0.01,0,0.09-0.1,0.02-0.03c-0.03,0.03-0.06,0.06-0.09,0.09c-0.07,0.08,0.07-0.03,0.01-0.01c-0.03,0.01-0.06,0.04-0.09,0.06
				c-0.01,0.01-0.11,0.05-0.06,0.03c0.06-0.02-0.09,0.03-0.1,0.03c-0.05,0.01-0.1,0.02-0.15,0.03c-0.06,0.02,0.07,0-0.05,0.01
				c-0.1,0-0.21,0.01-0.31,0c-0.06,0-0.13-0.01-0.19-0.02c0.07,0.01,0.02,0-0.02-0.01c-0.12-0.02-0.23-0.05-0.34-0.08
				c-0.22-0.06-0.43-0.12-0.64-0.19c-0.31-0.1-0.7,0.12-0.77,0.44c-0.08,0.34,0.1,0.66,0.44,0.77c1.01,0.34,2.42,0.66,3.23-0.27
				c0.64-0.72,0.77-2.02-0.19-2.55c-0.11,0.39-0.21,0.78-0.32,1.16c1.24,0,1.65-1.49,1.16-2.44c-0.3-0.58-0.97-0.86-1.6-0.88
				c-0.66-0.02-1.33,0.24-1.87,0.59c-0.27,0.18-0.41,0.56-0.22,0.86C35.09,279.69,35.48,279.83,35.77,279.64L35.77,279.64z"/>
		</g>
	</g>
	<g class="st1">
		<g>
			<path d="M231.51,277.67c-0.18,0.48-0.19,0.99-0.11,1.48c0.08,0.5,0.32,0.95,0.64,1.33c0.1,0.12,0.3,0.18,0.44,0.18
				c0.15,0,0.34-0.07,0.44-0.18c0.11-0.12,0.19-0.28,0.18-0.44c-0.01-0.17-0.07-0.31-0.18-0.44c-0.05-0.07,0.02,0.04,0.03,0.05
				c-0.02-0.02-0.04-0.05-0.05-0.07c-0.03-0.04-0.05-0.08-0.07-0.11c-0.03-0.04-0.05-0.09-0.07-0.13c-0.01-0.02-0.02-0.04-0.03-0.06
				c-0.01-0.02-0.05-0.12-0.01-0.02c0.04,0.1-0.01-0.04-0.02-0.07c-0.02-0.05-0.03-0.1-0.04-0.15c-0.03-0.1-0.05-0.2-0.06-0.3
				c0.01,0.06,0.01,0.11,0.02,0.17c-0.02-0.19-0.02-0.38,0-0.58c-0.01,0.06-0.01,0.11-0.02,0.17c0.02-0.17,0.06-0.33,0.12-0.49
				c0.05-0.14,0.01-0.35-0.06-0.48c-0.08-0.13-0.22-0.25-0.37-0.29C231.92,277.15,231.63,277.34,231.51,277.67L231.51,277.67z"/>
		</g>
	</g>
	<g class="st1">
		<g>
			<path d="M235.31,278.38C235.31,278.24,235.29,278.51,235.31,278.38c0.01-0.15-0.01,0.01-0.02,0.01c0,0,0.04-0.09,0.06-0.1
				c-0.06,0.08-0.07,0.09-0.03,0.04c0.01-0.01,0.02-0.02,0.03-0.03c0.1-0.07-0.11,0.06-0.01,0c0.03-0.01,0.07-0.04,0.1-0.06
				c0.09-0.06-0.11,0.02,0,0c0.04-0.01,0.08-0.02,0.12-0.03c0.04-0.01,0.17-0.02,0-0.01c0.04,0,0.08-0.01,0.13-0.01
				c0.04,0,0.09,0,0.13,0c0.05,0,0.16,0.04,0.01,0c0.08,0.02,0.17,0.04,0.25,0.06c0.13,0.04-0.11-0.06,0.01,0
				c0.04,0.02,0.08,0.04,0.11,0.06c0.04,0.03,0.12,0.11,0.01,0c0.03,0.03,0.06,0.06,0.09,0.09c0.09,0.08-0.07-0.13,0.02,0.03
				c0.03,0.06,0.07,0.11,0.1,0.17c0.06,0.11,0.12,0.42,0.13,0.55c0.03,0.55-0.06,0.93-0.19,1.49c-0.1,0.41,0.19,0.77,0.6,0.79
				c0.65,0.03,1.3,0.06,1.95,0.09c0.34,0.02,0.62-0.3,0.62-0.62c0-0.35-0.29-0.61-0.62-0.62c-0.65-0.03-1.3-0.06-1.95-0.09
				c0.2,0.26,0.4,0.53,0.6,0.79c0.17-0.74,0.31-1.49,0.19-2.25c-0.1-0.63-0.44-1.26-1.03-1.56c-1.03-0.52-2.59-0.15-2.64,1.19
				c-0.01,0.34,0.3,0.62,0.62,0.62C235.03,279.01,235.29,278.72,235.31,278.38L235.31,278.38z"/>
		</g>
	</g>
	<g class="st1">
		<g>
			<path d="M241.43,277.13c0,2.32,0,4.64,0,6.96c0,0.8,1.25,0.81,1.25,0c0-2.32,0-4.64,0-6.96
				C242.68,276.32,241.43,276.32,241.43,277.13L241.43,277.13z"/>
		</g>
	</g>
	<g class="st1">
		<g>
			<path d="M245.74,278.67c0.03-0.04,0.07-0.07,0.1-0.1c-0.03,0.03-0.08,0.05-0.02,0.02c0.04-0.02,0.15-0.06,0.01-0.02
				c0.04-0.01,0.07-0.02,0.11-0.03c0.08-0.03,0.06-0.01-0.01-0.01c0.04,0,0.08-0.01,0.11-0.01c0.04,0,0.08,0.01,0.12,0
				c-0.14,0.01-0.03-0.01,0.02,0.01c0.08,0.02,0.16,0.04,0.23,0.07c-0.08-0.03-0.05-0.02,0.01,0.01c0.04,0.02,0.07,0.04,0.11,0.06
				c0.04,0.02,0.07,0.05,0.1,0.07c0.06,0.03-0.07-0.07,0.01,0.01c0.04,0.04,0.07,0.07,0.11,0.1c0.01,0.01,0.1,0.12,0.05,0.05
				c-0.05-0.07,0.03,0.05,0.04,0.06c0.02,0.03,0.04,0.07,0.06,0.11c0.02,0.03,0.02,0.03,0-0.02c0.01,0.02,0.02,0.04,0.02,0.07
				c0.02,0.05,0.04,0.11,0.05,0.17c0.02,0.06,0.03,0.11,0.04,0.17c0.04,0.19,0-0.09,0.01,0.11c0.01,0.12,0.01,0.23,0.01,0.35
				c-0.01,0.44-0.13,0.89-0.26,1.37c-0.11,0.41,0.2,0.77,0.6,0.79c0.65,0.04,1.31,0.07,1.96,0.11c0.33,0.02,0.64-0.3,0.62-0.62
				c-0.02-0.35-0.27-0.61-0.62-0.62c-0.65-0.04-1.31-0.07-1.96-0.11c0.2,0.26,0.4,0.53,0.6,0.79c0.31-1.18,0.59-2.62-0.32-3.62
				c-0.69-0.76-2.04-1.04-2.79-0.21c-0.23,0.25-0.25,0.64,0,0.88C245.08,278.9,245.51,278.92,245.74,278.67L245.74,278.67z"/>
		</g>
	</g>
	<g class="st1">
		<g>
			<path d="M251.08,279.04c0.82-0.12,1.64-0.25,2.46-0.37c-0.26-0.15-0.51-0.29-0.77-0.44c-0.02-0.14,0,0.03,0.01,0.06
				c0.01,0.06,0.01,0.13,0.02,0.19c0.01,0.11,0.02,0.22,0.02,0.33c0.01,0.23,0.02,0.47,0.01,0.7c0,0.22-0.02,0.45-0.04,0.67
				c-0.01,0.11-0.02,0.22-0.04,0.33c0.02-0.14-0.01,0.05-0.01,0.08c-0.01,0.06-0.02,0.13-0.03,0.19c-0.06,0.32,0.09,0.69,0.44,0.77
				c0.3,0.07,0.71-0.09,0.77-0.44c0.19-1.08,0.2-2.14,0.05-3.23c-0.02-0.14-0.17-0.31-0.29-0.37c-0.16-0.08-0.31-0.09-0.48-0.06
				c-0.82,0.12-1.64,0.25-2.46,0.37c-0.32,0.05-0.53,0.47-0.44,0.77C250.43,278.95,250.74,279.09,251.08,279.04L251.08,279.04z"/>
		</g>
	</g>
	<g class="st1">
		<g>
			<path d="M257.39,276.03c-0.39,2.84-0.78,5.68-1.16,8.51c-0.05,0.34,0.08,0.67,0.44,0.77c0.29,0.08,0.72-0.1,0.77-0.44
				c0.39-2.84,0.78-5.68,1.16-8.51c0.05-0.34-0.08-0.67-0.44-0.77C257.87,275.51,257.44,275.69,257.39,276.03L257.39,276.03z"/>
		</g>
	</g>
	<g class="st1">
		<g>
			<path d="M261.2,278.98c0.08-0.03,0.16-0.06,0.25-0.07c-0.05,0.01-0.09,0-0.01,0.01c0.04,0,0.09,0.01,0.13,0
				c0.07-0.01-0.12-0.03,0.01,0.01c0.03,0.01,0.07,0.02,0.1,0.03c0,0,0.14,0.06,0.07,0.02c-0.08-0.04,0.05,0.03,0.07,0.04
				c0.04,0.02,0.08,0.05,0.11,0.07c0.01,0.01,0.1,0.08,0.04,0.03c-0.06-0.05,0.05,0.05,0.06,0.06c0.03,0.03,0.06,0.06,0.1,0.1
				c0.03,0.03,0.06,0.07,0.09,0.1c-0.04-0.05-0.03-0.04,0,0.01c0.05,0.08,0.09,0.16,0.13,0.24c-0.03-0.05-0.02-0.06,0,0
				c0.02,0.05,0.03,0.09,0.04,0.14c0.02,0.06,0.03,0.11,0.04,0.17c0,0.02,0.02,0.11,0.01,0.04c0.03,0.22,0.02,0.45,0,0.67
				c-0.01,0.04-0.01,0.05,0,0.01c0,0.02-0.01,0.05-0.01,0.07c-0.01,0.06-0.02,0.12-0.03,0.18c-0.02,0.11-0.04,0.21-0.07,0.32
				c-0.06,0.23-0.12,0.46-0.19,0.7c-0.12,0.42,0.21,0.76,0.6,0.79c0.6,0.05,1.19,0.11,1.79,0.16c0.33,0.03,0.64-0.31,0.62-0.62
				c-0.02-0.36-0.28-0.59-0.62-0.62c-0.6-0.05-1.19-0.11-1.79-0.16c0.2,0.26,0.4,0.53,0.6,0.79c0.32-1.08,0.61-2.31,0.04-3.35
				c-0.46-0.85-1.54-1.5-2.51-1.11c-0.3,0.12-0.55,0.42-0.44,0.77C260.52,278.84,260.87,279.11,261.2,278.98L261.2,278.98z"/>
		</g>
	</g>
	<g class="st1">
		<g>
			<path d="M267.51,277.44c-0.22,0.03-0.43,0.06-0.65,0.09c-0.22,0.03-0.4,0.12-0.51,0.32c-0.04,0.06-0.06,0.13-0.09,0.2
				c-0.14,0.31-0.26,0.63-0.32,0.97c-0.13,0.66-0.1,1.46,0.47,1.93c0.37,0.31,0.82,0.44,1.3,0.37c0.43-0.06,0.83-0.25,1.19-0.48
				c0.7-0.45,1.42-1.16,1.24-2.07c-0.08-0.43-0.43-0.79-0.82-0.96c-0.42-0.18-0.97-0.14-1.27,0.24c-0.11,0.14-0.18,0.26-0.18,0.44
				c0,0.15,0.07,0.34,0.18,0.44c0.22,0.21,0.67,0.28,0.88,0c0.01-0.02,0.04-0.04,0.05-0.05c0.03-0.06-0.14,0.09-0.05,0.04
				c0.04-0.02,0.08-0.02-0.08,0.03c0.02-0.01,0.03-0.01,0.05-0.01c-0.2,0.04-0.13,0.01-0.08,0.01c0.07,0,0.07,0.03-0.07-0.02
				c0.04,0.01,0.09,0.03,0.13,0.04c-0.16-0.04-0.11-0.05-0.06-0.02c0.02,0.01,0.04,0.03,0.06,0.04c0.05,0.03,0.02,0.05-0.05-0.04
				c0.01,0.01,0.03,0.03,0.04,0.04c0.02,0.02,0.03,0.04,0.05,0.06c0.06,0.05-0.09-0.14-0.03-0.04c0.01,0.02,0.02,0.04,0.03,0.05
				c0.06,0.09-0.04-0.14-0.02-0.04c0,0.02,0.01,0.04,0.02,0.06c0.03,0.1,0.01-0.13-0.01-0.06c0,0.01-0.01,0.08,0,0.08
				c-0.01-0.01,0.03-0.16,0.01-0.05c-0.01,0.03-0.01,0.05-0.02,0.07c-0.01,0.03-0.06,0.12-0.01,0.03c0.06-0.09-0.01,0.01-0.02,0.03
				c-0.02,0.03-0.04,0.07-0.06,0.1c0,0-0.05,0.06-0.04,0.06c-0.01-0.02,0.09-0.11,0.01-0.02c-0.04,0.05-0.08,0.09-0.13,0.13
				c-0.04,0.04-0.09,0.08-0.14,0.12c-0.01,0-0.01,0.01-0.02,0.01c-0.05,0.04-0.04,0.03,0.03-0.02c-0.02,0.03-0.07,0.05-0.1,0.07
				c-0.1,0.07-0.21,0.14-0.32,0.21c-0.05,0.03-0.1,0.06-0.16,0.09c-0.03,0.02-0.07,0.03-0.1,0.05c-0.02,0.01-0.04,0.02-0.06,0.03
				c0.07-0.03,0.09-0.04,0.05-0.02c-0.06,0.02-0.12,0.05-0.19,0.06c-0.03,0.01-0.07,0.02-0.1,0.03c-0.13,0.03,0.02-0.01,0.02,0
				c0,0-0.15,0-0.17,0.01c-0.13,0.01,0.11,0.03,0.02,0.01c-0.04-0.01-0.08-0.02-0.12-0.03c-0.08-0.02,0.13,0.07,0.01,0.01
				c-0.02-0.01-0.04-0.02-0.06-0.03c-0.02-0.01-0.04-0.02-0.05-0.03c-0.1-0.06,0.09,0.09,0.04,0.03c-0.03-0.03-0.06-0.07-0.09-0.09
				c0.1,0.09,0.07,0.1,0.05,0.06c-0.02-0.02-0.03-0.05-0.05-0.07c-0.08-0.14,0.04,0.14-0.01-0.01c-0.01-0.04-0.03-0.09-0.04-0.13
				c-0.01-0.02-0.01-0.05-0.01-0.07c0,0,0.02,0.17,0.01,0.07c0-0.05-0.01-0.11-0.01-0.16c0-0.06,0-0.12,0.01-0.18
				c0-0.03,0.01-0.06,0.01-0.08c0,0.03-0.01,0.07-0.01,0.1c0-0.02,0.01-0.05,0.01-0.07c0.02-0.12,0.05-0.23,0.08-0.34
				c0.04-0.12,0.08-0.25,0.12-0.37c0.01-0.02,0.02-0.04,0.03-0.06c0.05-0.12-0.06,0.13-0.01,0.02c0.03-0.06,0.06-0.12,0.09-0.18
				c-0.12,0.1-0.25,0.19-0.37,0.29c0.26-0.04,0.52-0.07,0.78-0.11c0.14-0.02,0.3-0.17,0.37-0.29c0.08-0.13,0.11-0.33,0.06-0.48
				c-0.05-0.15-0.14-0.3-0.29-0.37C267.84,277.42,267.69,277.42,267.51,277.44L267.51,277.44z"/>
		</g>
	</g>
	<g class="st1">
		<g>
			<path d="M272.85,279.47c0.02-0.04,0.04-0.08,0.06-0.11c-0.03,0.06-0.07,0.07,0,0.01c0.05-0.04,0.08-0.03-0.01,0
				c0.03-0.01,0.07-0.03,0.09-0.05c0.05-0.04-0.12,0.03-0.01,0.01c0.01,0,0.12-0.04,0.13-0.03c-0.01-0.01-0.15,0-0.01,0.01
				c0.01,0,0.11-0.01,0.11,0c0-0.01-0.15-0.04-0.02,0c0.03,0.01,0.07,0.02,0.1,0.03c-0.12-0.02-0.06-0.02,0.01,0.01
				c0.1,0.04-0.04-0.06-0.01-0.01c0.02,0.03,0.05,0.05,0.07,0.08c-0.06-0.07-0.03-0.06-0.01,0.01c0.02,0.04,0.02,0.04,0,0
				c0.01,0.02,0.01,0.04,0.02,0.06c0,0,0.03,0.2,0.02,0.1c0.06,0.5,0.03,1.03,0,1.54c-0.03,0.54-0.08,1.05-0.17,1.55
				c-0.05,0.27,0.03,0.56,0.29,0.71c0.95,0.54,2.1,0.55,3.06,0.05c0.29-0.15,0.4-0.58,0.22-0.86c-0.19-0.3-0.54-0.38-0.86-0.22
				c-0.26,0.13-0.59,0.21-0.91,0.2c-0.08,0-0.17-0.01-0.25-0.02c0.1,0.01-0.03-0.01-0.05-0.01c-0.04-0.01-0.08-0.02-0.12-0.03
				c-0.09-0.02-0.18-0.05-0.27-0.09c0.08,0.03-0.03-0.01-0.05-0.03c-0.05-0.02-0.09-0.05-0.14-0.08c0.1,0.24,0.19,0.47,0.29,0.71
				c0.12-0.71,0.2-1.43,0.23-2.16c0.02-0.66,0.09-1.43-0.21-2.04c-0.51-1.02-2.19-1.02-2.69,0.02c-0.14,0.29-0.09,0.69,0.22,0.86
				C272.27,279.85,272.7,279.79,272.85,279.47L272.85,279.47z"/>
		</g>
	</g>
	<g class="st1">
		<g>
			<path d="M277.33,279.19c0.49-0.45,1.19-0.62,1.83-0.45c-0.15-0.15-0.29-0.29-0.44-0.44c0.16,0.49,0.07,0.94-0.25,1.35
				c-0.15,0.19-0.09,0.52,0.05,0.69c0.17,0.21,0.4,0.26,0.66,0.22c0.72-0.1,1.53,0.63,1.53,1.37c0,0.73-0.81,1.47-1.53,1.38
				c-0.33-0.05-0.67,0.08-0.77,0.44c-0.08,0.29,0.1,0.72,0.44,0.77c0.8,0.11,1.54-0.1,2.16-0.62c0.57-0.47,0.95-1.21,0.94-1.96
				c0-0.75-0.38-1.48-0.95-1.96c-0.62-0.52-1.37-0.73-2.17-0.62c0.24,0.31,0.47,0.61,0.71,0.92c0.32-0.41,0.48-0.93,0.5-1.45
				c0.01-0.26-0.03-0.53-0.1-0.77c-0.11-0.35-0.33-0.51-0.68-0.57c-1.03-0.18-2.06,0.12-2.83,0.82
				C275.85,278.85,276.74,279.73,277.33,279.19L277.33,279.19z"/>
		</g>
	</g>
</g>
<g id="Layer_2">
	<g>
		<g>
			<path d="M9.96,277.26c-0.68-0.84-1.99-1.07-2.91-0.5c-0.99,0.62-1.32,1.88-0.84,2.93c0.41,0.91,1.38,1.51,1.37,2.6
				c-0.01,0.9-0.81,1.71-1.74,1.49c-0.78-0.18-1.12,1.02-0.33,1.21c1.05,0.24,2.14-0.16,2.78-1.02c0.68-0.91,0.69-2.17,0.19-3.16
				c-0.36-0.7-1.45-1.46-1.21-2.35c0.24-0.89,1.28-0.97,1.81-0.31c0.21,0.26,0.66,0.22,0.88,0
				C10.22,277.88,10.17,277.52,9.96,277.26L9.96,277.26z"/>
		</g>
	</g>
	<g>
		<g>
			<path d="M11.31,284.09c0.07-0.83,0.24-1.64,0.49-2.43c0.03-0.08,0.05-0.15,0.08-0.23c0.01-0.03,0.02-0.06,0.03-0.09
				c-0.03,0.08,0.01-0.02,0.01-0.03c0.08-0.16,0.16-0.32,0.25-0.46c0.1-0.15,0.13-0.19,0.21-0.29c0.05-0.05,0.1-0.11,0.15-0.16
				c0.02-0.02,0.05-0.04,0.07-0.06c0.14-0.12-0.05,0.03,0.04-0.03c0.06-0.04,0.12-0.07,0.18-0.1c0.11-0.06,0.04-0.01,0.01-0.01
				c0.04-0.01,0.07-0.02,0.11-0.03c0.03-0.01,0.06-0.01,0.08-0.02c0.09-0.02-0.09,0,0,0c0.03,0,0.06,0,0.09,0
				c0.16,0-0.05-0.02,0.04,0c0.03,0.01,0.2,0.06,0.1,0.02c0.06,0.03,0.12,0.06,0.17,0.1c0.08,0.05-0.06-0.06,0.01,0.01
				c0.02,0.02,0.04,0.04,0.06,0.06c0.03,0.03,0.05,0.06,0.08,0.08c-0.06-0.07,0,0,0.02,0.03c0.04,0.06,0.07,0.12,0.11,0.18
				c0.02,0.04,0.04,0.07,0.05,0.11c-0.01-0.01-0.03-0.08,0-0.01c0.06,0.14,0.1,0.29,0.14,0.44c0.02,0.08,0.03,0.16,0.05,0.24
				c0,0,0.01,0.1,0.01,0.04c-0.01-0.07,0,0.05,0.01,0.07c0.02,0.17,0.02,0.34,0.03,0.51c0.05,0.89,0.15,1.75,0.74,2.46
				c0.22,0.26,0.66,0.22,0.88,0c0.26-0.26,0.22-0.62,0-0.88c0.04,0.05-0.02-0.03-0.03-0.04c-0.03-0.04-0.05-0.08-0.07-0.11
				c-0.01-0.02-0.1-0.22-0.08-0.15c-0.07-0.19-0.12-0.39-0.15-0.6c0.01,0.07-0.02-0.16-0.02-0.18c-0.01-0.09-0.02-0.19-0.02-0.28
				c-0.01-0.2-0.02-0.4-0.04-0.6c-0.06-0.77-0.25-1.57-0.79-2.15c-0.58-0.62-1.48-0.74-2.23-0.37c-0.71,0.36-1.17,1.11-1.47,1.82
				c-0.41,0.98-0.59,2.08-0.68,3.14c-0.03,0.34,0.31,0.62,0.62,0.62C11.05,284.72,11.28,284.43,11.31,284.09L11.31,284.09z"/>
		</g>
	</g>
	<g>
		<g>
			<path d="M11.83,283.39c1.16-0.23,2.31-0.47,3.47-0.7c0.32-0.06,0.54-0.46,0.44-0.77c-0.11-0.34-0.42-0.51-0.77-0.44
				c-1.16,0.23-2.31,0.47-3.47,0.7c-0.32,0.06-0.54,0.46-0.44,0.77C11.17,283.29,11.49,283.46,11.83,283.39L11.83,283.39z"/>
		</g>
	</g>
	<g>
		<g>
			<path d="M17.96,282.67c0.12-0.4,0.09-0.8,0.04-1.2c-0.02-0.18-0.04-0.36-0.04-0.55c0-0.04,0-0.09,0.01-0.13
				c-0.01,0.06,0,0.06,0.01-0.02c0.02-0.07,0.02-0.08,0.01-0.02c0.04-0.06,0.04-0.07,0.02-0.04c-0.04,0.02,0.09-0.07-0.01-0.01
				c0.08-0.02,0.09-0.02,0.03-0.02c0.05,0,0.09,0,0.14,0c-0.11-0.01,0.17,0.06,0.09,0.02c0.09,0.04,0.11,0.06,0.17,0.1
				c0.27,0.23,0.37,0.62,0.48,0.96c0.21,0.66,1.23,0.56,1.23-0.17c0-0.55-0.03-1.19,0.31-1.65c-0.05,0.06,0.08-0.08,0.08-0.08
				c0.08-0.07-0.01-0.01,0.08-0.07c0.12-0.08,0.15-0.09,0.24-0.12c0.03-0.01,0.14-0.03,0.06-0.02c0.06-0.01,0.13-0.01,0.19,0
				c-0.11-0.01,0.06,0.03,0.08,0.03c-0.1-0.04,0.04,0.05,0.01,0.01c0.37,0.45,0.5,1.15,0.6,1.73c0.11,0.66,0.1,1.35,0.01,2.01
				c-0.04,0.34,0.32,0.62,0.62,0.62c0.37,0,0.58-0.29,0.62-0.62c0.12-0.9,0.07-1.82-0.13-2.71c-0.19-0.84-0.48-1.89-1.35-2.23
				c-0.72-0.28-1.58,0.05-2.05,0.63c-0.57,0.69-0.62,1.61-0.62,2.46c0.41-0.06,0.82-0.11,1.23-0.17c-0.18-0.56-0.39-1.16-0.85-1.56
				c-0.47-0.41-1.14-0.58-1.73-0.32c-0.57,0.25-0.83,0.83-0.82,1.42c0,0.23,0.04,0.46,0.06,0.69c0.03,0.26,0.03,0.49-0.02,0.65
				C16.52,283.11,17.73,283.44,17.96,282.67L17.96,282.67z"/>
		</g>
	</g>
	<g>
		<g>
			<path d="M28.94,278.38c0.11,1.69,0.22,3.39,0.33,5.08c0.02,0.34,0.27,0.62,0.62,0.62c0.32,0,0.65-0.29,0.62-0.62
				c-0.11-1.69-0.22-3.39-0.33-5.08c-0.02-0.34-0.27-0.62-0.62-0.62C29.24,277.76,28.92,278.04,28.94,278.38L28.94,278.38z"/>
		</g>
	</g>
	<g>
		<g>
			<path d="M30.18,280.07c0.08-0.06,0.17-0.11,0.26-0.17c0.13-0.08-0.1,0.02,0.04-0.02c0.05-0.01,0.1-0.03,0.15-0.04
				c0.05-0.01,0.1-0.02,0.15-0.03c-0.15,0.03,0.02,0,0.04,0c0.05,0,0.1,0,0.16,0c0.03,0,0.19,0.02,0.04,0
				c0.1,0.02,0.2,0.05,0.3,0.07c0.12,0.03-0.08-0.05,0.04,0.01c0.04,0.02,0.08,0.04,0.11,0.06c0.02,0.01,0.15,0.1,0.08,0.05
				c-0.07-0.05,0.06,0.05,0.07,0.07c0.01,0.01,0.12,0.13,0.07,0.07c-0.05-0.07,0.04,0.07,0.05,0.08c0.03,0.05,0.04,0.1,0.01,0.02
				c0.02,0.05,0.03,0.1,0.04,0.15c-0.04-0.14,0,0,0,0.04c0,0.06-0.02,0.15,0,0.04c-0.01,0.05-0.02,0.1-0.04,0.15
				c-0.01,0.02-0.07,0.17-0.01,0.05c-0.02,0.05-0.05,0.1-0.08,0.14c-0.01,0.02-0.11,0.15-0.03,0.05c-0.03,0.04-0.07,0.08-0.11,0.12
				c-0.02,0.02-0.14,0.12-0.03,0.04c-0.04,0.03-0.09,0.06-0.13,0.08c-0.03,0.02-0.17,0.06-0.04,0.02c-0.05,0.01-0.1,0.03-0.14,0.04
				c0.08-0.02,0.07-0.01-0.01,0c-0.03,0-0.05,0-0.08,0c0.07,0.01,0.09,0.01,0.04,0.01c-0.05-0.03-0.12-0.03-0.18-0.05
				c-0.11,0.4-0.22,0.8-0.33,1.21c1.19,0.32,2.24,0.94,3.1,1.84c0.23,0.25,0.65,0.23,0.88,0c0.24-0.24,0.23-0.64,0-0.88
				c-0.99-1.04-2.26-1.8-3.65-2.16c-0.33-0.09-0.68,0.11-0.77,0.44c-0.1,0.35,0.12,0.65,0.44,0.77c1.44,0.56,2.82-1.23,2.26-2.54
				c-0.53-1.25-2.32-1.6-3.37-0.79c-0.27,0.21-0.41,0.54-0.22,0.86C29.47,280.11,29.91,280.28,30.18,280.07L30.18,280.07z"/>
		</g>
	</g>
	<g>
		<g>
			<path d="M34.93,278.85c0.32,1.63,0.94,3.21,1.8,4.63c0.18,0.29,0.56,0.4,0.86,0.22c0.29-0.17,0.4-0.57,0.22-0.86
				c-0.81-1.34-1.37-2.79-1.67-4.33c-0.07-0.33-0.46-0.52-0.77-0.44C35.02,278.18,34.86,278.52,34.93,278.85L34.93,278.85z"/>
		</g>
	</g>
	<g>
		<g>
			<path d="M34.71,279.48c0.53-0.29,1.12-0.54,1.73-0.57c0.27-0.01,0.53,0.01,0.78,0.11c0.08,0.03,0.16,0.08,0.23,0.12
				c0.14,0.09-0.07-0.07,0.06,0.04c0.03,0.03,0.07,0.07,0.1,0.1c0.03,0.03,0.03,0.03-0.01-0.02c0.02,0.02,0.03,0.05,0.05,0.07
				c0.03,0.04,0.05,0.08,0.07,0.12c0.01,0.01,0.08,0.18,0.03,0.06c0.04,0.1,0.06,0.2,0.09,0.31c0.02,0.07,0-0.09,0.01,0.03
				c0,0.06,0.01,0.11,0.01,0.17c0,0.06,0,0.11-0.01,0.17c0.01-0.09,0.01-0.03-0.01,0.03c-0.01,0.04-0.02,0.09-0.03,0.13
				c-0.01,0.02-0.07,0.17-0.01,0.05c-0.02,0.05-0.05,0.09-0.07,0.14c-0.06,0.1,0.04-0.03-0.01,0.02c-0.03,0.03-0.06,0.06-0.09,0.09
				c0.1-0.09-0.01,0-0.04,0.02c-0.15,0.07,0.12-0.02-0.04,0.02c-0.05,0.01-0.11,0.03-0.16,0.03c0.16,0.38,0.32,0.76,0.48,1.14
				c0.31-0.2,0.62-0.18,0.95-0.01c0.06,0.03,0.11,0.06,0.17,0.1c0.08,0.05,0.01,0,0.05,0.04c0.04,0.04,0.08,0.07,0.12,0.11
				c0.12,0.13-0.04-0.08,0.06,0.07c0.03,0.04,0.06,0.09,0.08,0.14c0.02,0.03,0.03,0.06,0.04,0.08c-0.02-0.04-0.02-0.04-0.01,0
				c0.01,0.05,0.03,0.1,0.04,0.15c-0.02-0.11,0,0.08,0,0.09c0,0.11,0.01,0,0,0.06c-0.01,0.05-0.02,0.1-0.04,0.15
				c-0.04,0.13,0.02-0.03-0.04,0.08c0,0-0.1,0.16-0.04,0.08c-0.15,0.2-0.25,0.26-0.48,0.37c0.07-0.03-0.03,0.01-0.06,0.02
				c-0.05,0.02-0.1,0.03-0.15,0.05c-0.01,0-0.2,0.03-0.09,0.02c-0.05,0.01-0.11,0.01-0.16,0.01c-0.04,0-0.14-0.01-0.05,0
				c-0.06-0.01-0.12-0.02-0.18-0.04c-0.05-0.02-0.13-0.06-0.25-0.14c-0.27-0.2-0.7-0.05-0.86,0.22c-0.18,0.31-0.05,0.66,0.22,0.86
				c1.32,0.94,3.39-0.15,3.43-1.75c0.04-1.62-2.03-2.73-3.37-1.85c-0.26,0.17-0.38,0.49-0.26,0.78c0.13,0.31,0.42,0.41,0.74,0.36
				c1.44-0.22,1.7-2.12,1.06-3.17c-1-1.65-3.29-1.13-4.68-0.36C33.38,278.79,34.01,279.87,34.71,279.48L34.71,279.48z"/>
		</g>
	</g>
	<g>
		<g>
			<path d="M235.04,277.89c0.13,1.58,0.26,3.16,0.39,4.74c0.03,0.34,0.27,0.62,0.62,0.62c0.32,0,0.65-0.29,0.62-0.62
				c-0.13-1.58-0.26-3.16-0.39-4.74c-0.03-0.34-0.27-0.62-0.62-0.62C235.35,277.27,235.01,277.56,235.04,277.89L235.04,277.89z"/>
		</g>
	</g>
	<g>
		<g>
			<path d="M238.41,279.11c0.09-0.13-0.08,0.06,0.03-0.04c0.02-0.02,0.14-0.12,0.02-0.04c0.04-0.03,0.08-0.05,0.12-0.08
				c0.1-0.06-0.06,0.01,0.01,0c0.04-0.01,0.08-0.02,0.12-0.03c0.13-0.04-0.1-0.01,0.03-0.01c0.05,0,0.1,0,0.15,0
				c0.03,0,0.19,0.03,0.04,0c0.1,0.02,0.19,0.04,0.29,0.07c0.05,0.02,0.11,0.04,0.03,0.01c0.05,0.02,0.1,0.05,0.15,0.07
				c0.05,0.03,0.1,0.06,0.14,0.09c0.02,0.02,0.14,0.12,0.05,0.04c0.08,0.07,0.15,0.14,0.22,0.21c0.05,0.05-0.04-0.07,0.02,0.03
				c0.03,0.05,0.06,0.1,0.08,0.14c0.08,0.12-0.02-0.09,0.02,0.05c0.02,0.07,0.04,0.14,0.06,0.2c0.06,0.26,0.07,0.53,0.04,0.79
				c-0.08,0.63-0.35,1.25-0.6,1.83c-0.1,0.23-0.12,0.48,0.05,0.69c0.16,0.2,0.41,0.29,0.66,0.22c0.91-0.25,1.82-0.49,2.73-0.74
				c0.78-0.21,0.45-1.42-0.33-1.21c-0.91,0.25-1.82,0.49-2.73,0.74c0.24,0.31,0.47,0.61,0.71,0.92c0.63-1.4,1.36-3.34,0.11-4.64
				c-0.88-0.91-2.54-1.14-3.29,0.04c-0.18,0.28-0.06,0.69,0.22,0.86C237.85,279.51,238.23,279.4,238.41,279.11L238.41,279.11z"/>
		</g>
	</g>
	<g>
		<g>
			<path d="M245.6,276.14c-0.43,2.57-0.72,5.16-0.87,7.76c-0.04,0.8,1.21,0.8,1.25,0c0.14-2.49,0.41-4.97,0.82-7.43
				c0.06-0.33-0.09-0.67-0.44-0.77C246.07,275.63,245.65,275.81,245.6,276.14L245.6,276.14z"/>
		</g>
	</g>
	<g>
		<g>
			<path d="M248.94,278.52c0.04-0.06,0.14-0.16,0.2-0.2c0.14-0.09,0.16-0.1,0.31-0.15c0.17-0.05,0.14-0.03,0.33-0.04
				c0.12,0-0.01-0.02,0.1,0.01c0.09,0.02,0.17,0.05,0.25,0.08c-0.15-0.15-0.29-0.29-0.44-0.44c0.36,1.52,0.33,3.11-0.08,4.62
				c-0.11,0.41,0.2,0.77,0.6,0.79c0.66,0.03,1.31,0.05,1.97,0.08c0.34,0.01,0.62-0.3,0.62-0.62c0-0.35-0.29-0.61-0.62-0.62
				c-0.66-0.03-1.31-0.05-1.97-0.08c0.2,0.26,0.4,0.53,0.6,0.79c0.41-1.51,0.47-3.09,0.21-4.64c-0.03-0.18-0.06-0.37-0.11-0.56
				c-0.08-0.3-0.23-0.45-0.52-0.55c-0.28-0.1-0.59-0.13-0.89-0.1c-0.68,0.07-1.26,0.42-1.65,0.99c-0.19,0.28-0.05,0.69,0.22,0.86
				C248.39,278.92,248.75,278.8,248.94,278.52L248.94,278.52z"/>
		</g>
	</g>
	<g>
		<g>
			<path d="M252.95,278.34c1.2,0.17,2.4,0.25,3.62,0.2c-0.2-0.26-0.4-0.53-0.6-0.79c-0.53,1.89-1.05,3.77-1.58,5.66
				c-0.22,0.78,0.99,1.11,1.21,0.33c0.53-1.89,1.05-3.77,1.58-5.66c0.11-0.38-0.19-0.81-0.6-0.79c-1.1,0.05-2.2,0-3.29-0.15
				c-0.33-0.05-0.67,0.08-0.77,0.44C252.43,277.86,252.61,278.29,252.95,278.34L252.95,278.34z"/>
		</g>
	</g>
	<g>
		<g>
			<path d="M259.75,276.02c-0.34,3.07-1.03,6.1-2.04,9.02c-0.26,0.76,0.94,1.09,1.21,0.33c1.04-3.03,1.73-6.17,2.08-9.35
				c0.04-0.34-0.31-0.62-0.62-0.62C260,275.39,259.78,275.69,259.75,276.02L259.75,276.02z"/>
		</g>
	</g>
	<g>
		<g>
			<path d="M262.62,279.68c0.03-0.01,0.15-0.05,0.18-0.05c-0.08,0.01,0.08,0,0.1,0c0.14,0-0.07-0.03,0.07,0.01
				c0.05,0.01,0.1,0.03,0.15,0.04c0.1,0.03-0.11-0.07,0.05,0.02c0.05,0.03,0.09,0.05,0.14,0.08c0.02,0.01,0.12,0.08,0.06,0.03
				c0.1,0.07,0.18,0.16,0.26,0.25c0.07,0.07,0.09,0.1,0.16,0.22c0.09,0.16,0.16,0.34,0.19,0.51c0.05,0.4-0.1,0.94-0.32,1.35
				c-0.25,0.5-0.59,0.95-0.93,1.39c-0.23,0.3-0.26,0.77,0.13,0.98c0.84,0.45,1.81,0.45,2.67,0.02c0.3-0.15,0.39-0.58,0.22-0.86
				c-0.18-0.31-0.55-0.38-0.86-0.22c-0.44,0.22-0.97,0.21-1.4-0.02c0.04,0.33,0.08,0.65,0.13,0.98c0.88-1.14,1.94-2.56,1.53-4.1
				c-0.35-1.34-1.8-2.38-3.14-1.72c-0.3,0.15-0.39,0.58-0.22,0.86C261.95,279.77,262.32,279.83,262.62,279.68L262.62,279.68z"/>
		</g>
	</g>
	<g>
		<g>
			<path d="M267.41,278.8c-0.65,0.76-1.1,1.73-1.1,2.75c-0.01,0.91,0.4,1.87,1.29,2.21c0.99,0.38,2.06-0.27,2.58-1.11
				c0.52-0.84,0.56-1.91,0.14-2.79c-0.46-0.97-1.55-1.6-2.61-1.59c-0.34,0-0.62,0.29-0.62,0.62c0,0.34,0.29,0.63,0.62,0.62
				c0.27,0,0.55,0.07,0.77,0.18c0.06,0.03,0.13,0.07,0.19,0.11c0.01,0.01,0.12,0.08,0.06,0.04c-0.05-0.04,0.05,0.04,0.06,0.05
				c0.06,0.05,0.11,0.1,0.16,0.15c0.03,0.03,0.06,0.06,0.08,0.09c0.13,0.14-0.03-0.04,0.04,0.05c0.05,0.07,0.09,0.14,0.13,0.21
				c0.01,0.03,0.08,0.19,0.05,0.11c0.03,0.08,0.05,0.16,0.07,0.24c0.01,0.04,0.02,0.08,0.03,0.12c0.02,0.11,0-0.02,0.01,0.05
				c0,0.07,0.01,0.15,0.01,0.22c0,0.02-0.02,0.26,0,0.15c-0.02,0.16-0.07,0.33-0.13,0.48c0.03-0.09,0,0.01-0.01,0.02
				c-0.02,0.04-0.04,0.07-0.06,0.11c-0.04,0.07-0.08,0.14-0.13,0.21c0,0-0.06,0.08-0.03,0.04c0.04-0.05-0.04,0.05-0.05,0.06
				c-0.06,0.07-0.13,0.14-0.21,0.2c0.05-0.04-0.14,0.08-0.15,0.09c-0.03,0.02-0.06,0.03-0.09,0.05c-0.1,0.04,0.07-0.02-0.04,0.01
				c-0.07,0.02-0.15,0.05-0.23,0.06c0.09-0.01-0.18-0.02-0.14-0.01c0.07,0.01-0.06-0.02-0.08-0.03c-0.1-0.02,0.07,0.04-0.01,0
				c-0.05-0.03-0.11-0.06-0.16-0.1c0.1,0.08-0.04-0.05-0.07-0.08c0.02,0.02,0.06,0.1,0,0c-0.02-0.04-0.05-0.08-0.07-0.11
				c-0.02-0.03-0.08-0.18-0.04-0.07c-0.03-0.07-0.05-0.14-0.07-0.21c-0.02-0.07-0.03-0.15-0.05-0.22c0.02,0.12,0-0.08,0-0.12
				c0-0.09,0-0.17,0-0.26c0-0.04,0.01-0.07,0.01-0.11c0-0.04,0-0.04,0,0.01c0-0.02,0.01-0.05,0.01-0.07
				c0.04-0.21,0.09-0.41,0.16-0.61c0.1-0.29,0.35-0.7,0.55-0.94c0.22-0.26,0.25-0.63,0-0.88
				C268.07,278.58,267.63,278.54,267.41,278.8L267.41,278.8z"/>
		</g>
	</g>
	<g>
		<g>
			<path d="M273.3,279.06c0.01-0.05,0.09-0.21,0.01-0.07c0.02-0.04,0.05-0.08,0.07-0.12c-0.09,0.15,0.03-0.01,0.04-0.03
				c0.03-0.03,0.02-0.02-0.04,0.02c0.02-0.02,0.05-0.04,0.08-0.05c0.04-0.02,0.08-0.04,0.12-0.07c-0.14,0.07,0.04-0.01,0.07-0.02
				c0.05-0.01,0.09-0.02,0.14-0.03c-0.16,0.03-0.01,0.01,0.03,0c0.04,0,0.25,0.02,0.08-0.01c0.05,0.01,0.1,0.02,0.14,0.03
				c0.03,0.01,0.06,0.02,0.09,0.03c-0.07-0.03-0.08-0.04-0.04-0.02c0.04,0.03,0.1,0.05,0.15,0.08c-0.11-0.07,0.02,0.02,0.04,0.04
				c0.02,0.02,0.16,0.19,0.09,0.09c0.03,0.05,0.06,0.09,0.09,0.14c0.01,0.02,0.09,0.19,0.07,0.13c-0.02-0.06,0.04,0.12,0.04,0.14
				c0.02,0.06,0.03,0.11,0.04,0.17c0.01,0.07,0.01,0.08,0,0.01c0,0.03,0.01,0.06,0.01,0.09c0,0.07,0.01,0.14,0.01,0.2
				c0,0.06-0.01,0.12-0.01,0.18c-0.01,0.08-0.01,0.08,0,0.01c-0.01,0.04-0.01,0.08-0.02,0.11c-0.03,0.14-0.07,0.27-0.12,0.41
				c-0.08,0.21-0.27,0.53-0.43,0.76c-0.19,0.28-0.34,0.47-0.56,0.73c-0.23,0.28-0.27,0.79,0.13,0.98c0.84,0.4,1.84,0.38,2.62-0.15
				c0.28-0.19,0.4-0.55,0.22-0.86c-0.16-0.28-0.57-0.41-0.86-0.22c-0.07,0.05-0.14,0.09-0.22,0.13c-0.11,0.06,0.03,0-0.08,0.04
				c-0.08,0.03-0.16,0.05-0.24,0.07c-0.04,0.01-0.08,0.02-0.12,0.02c0.05-0.01,0.05-0.01,0.01,0c-0.28,0.02-0.51-0.01-0.7-0.11
				c0.04,0.33,0.08,0.65,0.13,0.98c0.82-1.01,1.66-2.13,1.47-3.51c-0.08-0.58-0.34-1.16-0.81-1.53c-0.47-0.37-1.06-0.48-1.64-0.36
				c-0.61,0.13-1.16,0.6-1.3,1.22c-0.07,0.32,0.1,0.69,0.44,0.77C272.84,279.57,273.22,279.4,273.3,279.06L273.3,279.06z"/>
		</g>
	</g>
	<g>
		<g>
			<path d="M278.74,279.14c0.15-0.63,0.99-1.04,1.53-0.67c0.57,0.39,0.5,1.27,0.01,1.68c-0.21,0.17-0.23,0.54-0.1,0.76
				c0.43,0.71,1.1,1.69,0.84,2.58c-0.15,0.5-0.75,1.02-1.23,0.72c-0.68-0.44-1.31,0.65-0.63,1.08c1.06,0.68,2.41-0.03,2.91-1.07
				c0.65-1.34-0.11-2.79-0.81-3.94c-0.03,0.25-0.07,0.5-0.1,0.76c1.12-0.92,0.96-2.88-0.26-3.64c-1.24-0.78-3.03,0.03-3.37,1.42
				C277.34,279.59,278.55,279.92,278.74,279.14L278.74,279.14z"/>
		</g>
	</g>
</g>
</svg>
